<?xml version="1.0" encoding="UTF-8" standalone="no"?><svg xmlns="http://www.w3.org/2000/svg" xmlns:xlink="http://www.w3.org/1999/xlink" contentScriptType="application/ecmascript" contentStyleType="text/css" height="664px" preserveAspectRatio="none" style="width:448px;height:664px;" version="1.1" viewBox="0 0 448 664" width="448px" zoomAndPan="magnify"><defs><filter height="300%" id="f1cramtz3up9c2" width="300%" x="-1" y="-1"><feGaussianBlur result="blurOut" stdDeviation="2.0"/><feColorMatrix in="blurOut" result="blurOut2" type="matrix" values="0 0 0 0 0 0 0 0 0 0 0 0 0 0 0 0 0 0 .4 0"/><feOffset dx="4.0" dy="4.0" in="blurOut2" result="blurOut3"/><feBlend in="SourceGraphic" in2="blurOut3" mode="normal"/></filter></defs><g><!--MD5=[f131f9a01fee36ec2d9bc3dc43ddbe61]
cluster confidence_estimators--><polygon fill="#FFFFFF" filter="url(#f1cramtz3up9c2)" points="22,24,207,24,214,46.2969,426,46.2969,426,652,22,652,22,24" style="stroke: #000000; stroke-width: 1.5;"/><line style="stroke: #000000; stroke-width: 1.5;" x1="22" x2="214" y1="46.2969" y2="46.2969"/><text fill="#000000" font-family="sans-serif" font-size="14" font-weight="bold" lengthAdjust="spacingAndGlyphs" textLength="179" x="26" y="38.9951">confidence_estimators</text><!--MD5=[6cb6ec5e0c90e6137956ddfe3b6ed66b]
class SupportsConfidenceEstimation--><rect fill="#FEFECE" filter="url(#f1cramtz3up9c2)" height="73.6094" id="SupportsConfidenceEstimation" style="stroke: #A80036; stroke-width: 1.5;" width="371" x="38.5" y="59"/><ellipse cx="124.25" cy="75" fill="#B4A7E5" rx="11" ry="11" style="stroke: #A80036; stroke-width: 1.0;"/><path d="M120.1719,70.7656 L120.1719,68.6094 L127.5625,68.6094 L127.5625,70.7656 L125.0938,70.7656 L125.0938,78.8438 L127.5625,78.8438 L127.5625,81 L120.1719,81 L120.1719,78.8438 L122.6406,78.8438 L122.6406,70.7656 L120.1719,70.7656 Z "/><text fill="#000000" font-family="sans-serif" font-size="12" font-style="italic" lengthAdjust="spacingAndGlyphs" textLength="191" x="144.75" y="79.1543">SupportsConfidenceEstimation</text><line style="stroke: #A80036; stroke-width: 1.5;" x1="39.5" x2="408.5" y1="91" y2="91"/><text fill="#000000" font-family="sans-serif" font-size="11" lengthAdjust="spacingAndGlyphs" textLength="266" x="44.5" y="105.2104">ConfidenceIntervalsConfiguration configuration</text><line style="stroke: #A80036; stroke-width: 1.5;" x1="39.5" x2="408.5" y1="111.8047" y2="111.8047"/><text fill="#000000" font-family="sans-serif" font-size="11" lengthAdjust="spacingAndGlyphs" textLength="359" x="44.5" y="126.0151">torch.Tensor estimate_confidence(scores_batch: torch.Tensor)</text><!--MD5=[20e31074861ea3e6516bf3ee3698ca93]
class BaseConfidenceEstimator--><rect fill="#FEFECE" filter="url(#f1cramtz3up9c2)" height="124.8281" id="BaseConfidenceEstimator" style="stroke: #A80036; stroke-width: 1.5;" width="371" x="38.5" y="193"/><ellipse cx="140.25" cy="209" fill="#A9DCDF" rx="11" ry="11" style="stroke: #A80036; stroke-width: 1.0;"/><path d="M140.3594,204.3438 L139.2031,209.4219 L141.5313,209.4219 L140.3594,204.3438 Z M138.875,202.1094 L141.8594,202.1094 L145.2188,214.5 L142.7656,214.5 L142,211.4375 L138.7188,211.4375 L137.9688,214.5 L135.5313,214.5 L138.875,202.1094 Z "/><text fill="#000000" font-family="sans-serif" font-size="12" font-style="italic" lengthAdjust="spacingAndGlyphs" textLength="159" x="160.75" y="213.1543">BaseConfidenceEstimator</text><line style="stroke: #A80036; stroke-width: 1.5;" x1="39.5" x2="408.5" y1="225" y2="225"/><text fill="#000000" font-family="sans-serif" font-size="11" lengthAdjust="spacingAndGlyphs" textLength="321" x="44.5" y="239.2104">Optional[ConfidenceIntervalsConfiguration] configuration</text><text fill="#000000" font-family="sans-serif" font-size="11" lengthAdjust="spacingAndGlyphs" textLength="196" x="44.5" y="252.0151">Optional[torch.Tensor] distribution</text><line style="stroke: #A80036; stroke-width: 1.5;" x1="39.5" x2="408.5" y1="258.6094" y2="258.6094"/><text fill="#000000" font-family="sans-serif" font-size="11" font-style="italic" lengthAdjust="spacingAndGlyphs" textLength="228" x="44.5" y="272.8198">torch.Tensor _confidence_normal(score)</text><text fill="#000000" font-family="sans-serif" font-size="11" font-style="italic" lengthAdjust="spacingAndGlyphs" textLength="242" x="44.5" y="285.6245">torch.Tensor _confidence_abnormal(score)</text><text fill="#000000" font-family="sans-serif" font-size="11" font-style="italic" lengthAdjust="spacingAndGlyphs" textLength="238" x="44.5" y="298.4292">torch.Tensor _confidence_unknown(score)</text><text fill="#000000" font-family="sans-serif" font-size="11" lengthAdjust="spacingAndGlyphs" textLength="359" x="44.5" y="311.2339">torch.Tensor estimate_confidence(scores_batch: torch.Tensor)</text><!--MD5=[2d9854f5df4d6078d0a635b0f16cfbfa]
class ConfidenceIntervalsConfiguration--><rect fill="#FEFECE" filter="url(#f1cramtz3up9c2)" height="86.4141" id="ConfidenceIntervalsConfiguration" style="stroke: #A80036; stroke-width: 1.5;" width="239" x="104.5" y="378"/><ellipse cx="119.5" cy="394" fill="#ADD1B2" rx="11" ry="11" style="stroke: #A80036; stroke-width: 1.0;"/><path d="M122.4688,399.6406 Q121.8906,399.9375 121.25,400.0781 Q120.6094,400.2344 119.9063,400.2344 Q117.4063,400.2344 116.0781,398.5938 Q114.7656,396.9375 114.7656,393.8125 Q114.7656,390.6875 116.0781,389.0313 Q117.4063,387.375 119.9063,387.375 Q120.6094,387.375 121.25,387.5313 Q121.9063,387.6875 122.4688,387.9844 L122.4688,390.7031 Q121.8438,390.125 121.25,389.8594 Q120.6563,389.5781 120.0313,389.5781 Q118.6875,389.5781 118,390.6563 Q117.3125,391.7188 117.3125,393.8125 Q117.3125,395.9063 118,396.9844 Q118.6875,398.0469 120.0313,398.0469 Q120.6563,398.0469 121.25,397.7813 Q121.8438,397.5 122.4688,396.9219 L122.4688,399.6406 Z "/><text fill="#000000" font-family="sans-serif" font-size="12" lengthAdjust="spacingAndGlyphs" textLength="207" x="133.5" y="398.1543">ConfidenceIntervalsConfiguration</text><line style="stroke: #A80036; stroke-width: 1.5;" x1="105.5" x2="342.5" y1="410" y2="410"/><text fill="#000000" font-family="sans-serif" font-size="11" lengthAdjust="spacingAndGlyphs" textLength="86" x="110.5" y="424.2104">Interval normal</text><text fill="#000000" font-family="sans-serif" font-size="11" lengthAdjust="spacingAndGlyphs" textLength="100" x="110.5" y="437.0151">Interval abnormal</text><text fill="#000000" font-family="sans-serif" font-size="11" lengthAdjust="spacingAndGlyphs" textLength="96" x="110.5" y="449.8198">Interval unknown</text><line style="stroke: #A80036; stroke-width: 1.5;" x1="105.5" x2="342.5" y1="456.4141" y2="456.4141"/><!--MD5=[94b2979dc8db7061b05b681130e8ecb6]
class Interval--><rect fill="#FEFECE" filter="url(#f1cramtz3up9c2)" height="112.0234" id="Interval" style="stroke: #A80036; stroke-width: 1.5;" width="331" x="58.5" y="524"/><ellipse cx="196.75" cy="540" fill="#ADD1B2" rx="11" ry="11" style="stroke: #A80036; stroke-width: 1.0;"/><path d="M199.7188,545.6406 Q199.1406,545.9375 198.5,546.0781 Q197.8594,546.2344 197.1563,546.2344 Q194.6563,546.2344 193.3281,544.5938 Q192.0156,542.9375 192.0156,539.8125 Q192.0156,536.6875 193.3281,535.0313 Q194.6563,533.375 197.1563,533.375 Q197.8594,533.375 198.5,533.5313 Q199.1563,533.6875 199.7188,533.9844 L199.7188,536.7031 Q199.0938,536.125 198.5,535.8594 Q197.9063,535.5781 197.2813,535.5781 Q195.9375,535.5781 195.25,536.6563 Q194.5625,537.7188 194.5625,539.8125 Q194.5625,541.9063 195.25,542.9844 Q195.9375,544.0469 197.2813,544.0469 Q197.9063,544.0469 198.5,543.7813 Q199.0938,543.5 199.7188,542.9219 L199.7188,545.6406 Z "/><text fill="#000000" font-family="sans-serif" font-size="12" lengthAdjust="spacingAndGlyphs" textLength="46" x="217.25" y="544.1543">Interval</text><line style="stroke: #A80036; stroke-width: 1.5;" x1="59.5" x2="388.5" y1="556" y2="556"/><text fill="#000000" font-family="sans-serif" font-size="11" lengthAdjust="spacingAndGlyphs" textLength="47" x="64.5" y="570.2104">float left</text><text fill="#000000" font-family="sans-serif" font-size="11" lengthAdjust="spacingAndGlyphs" textLength="55" x="64.5" y="583.0151">float right</text><text fill="#000000" font-family="sans-serif" font-size="11" lengthAdjust="spacingAndGlyphs" textLength="89" x="64.5" y="595.8198">bool closed_left</text><text fill="#000000" font-family="sans-serif" font-size="11" lengthAdjust="spacingAndGlyphs" textLength="97" x="64.5" y="608.6245">bool closed_right</text><line style="stroke: #A80036; stroke-width: 1.5;" x1="59.5" x2="388.5" y1="615.2188" y2="615.2188"/><text fill="#000000" font-family="sans-serif" font-size="11" lengthAdjust="spacingAndGlyphs" textLength="319" x="64.5" y="629.4292">torch.Tensor contains_tensor_mask(item: torch.Tensor)</text><!--MD5=[cf9948751addf8ae2e0c8f9338d3f549]
reverse link SupportsConfidenceEstimation to BaseConfidenceEstimator--><path d="M224,153.56 C224,166.32 224,179.94 224,192.9 " fill="none" id="SupportsConfidenceEstimation&lt;-BaseConfidenceEstimator" style="stroke: #A80036; stroke-width: 1.0; stroke-dasharray: 7.0,7.0;"/><polygon fill="none" points="217,153.13,224,133.13,231,153.13,217,153.13" style="stroke: #A80036; stroke-width: 1.0;"/><!--MD5=[e16df1edccc663eb8c1b6680775d7927]
reverse link BaseConfidenceEstimator to ConfidenceIntervalsConfiguration--><path d="M224,331.56 C224,347.48 224,363.75 224,377.91 " fill="none" id="BaseConfidenceEstimator&lt;-ConfidenceIntervalsConfiguration" style="stroke: #A80036; stroke-width: 1.0;"/><polygon fill="#A80036" points="224,318.31,220,324.31,224,330.31,228,324.31,224,318.31" style="stroke: #A80036; stroke-width: 1.0;"/><!--MD5=[0b37ff2e854440d7f1067e1b2edb1801]
reverse link ConfidenceIntervalsConfiguration to Interval--><path d="M224,477.46 C224,492.5 224,508.78 224,523.8 " fill="none" id="ConfidenceIntervalsConfiguration&lt;-Interval" style="stroke: #A80036; stroke-width: 1.0;"/><polygon fill="#A80036" points="224,464.07,220,470.07,224,476.07,228,470.07,224,464.07" style="stroke: #A80036; stroke-width: 1.0;"/><!--MD5=[7e4d8c0607ea24d33a3a9f8f3384cc62]
@startuml confidence_estimators

package confidence_estimators {

    interface SupportsConfidenceEstimation{
        ConfidenceIntervalsConfiguration configuration
        torch.Tensor estimate_confidence(scores_batch: torch.Tensor)
    }

    abstract class BaseConfidenceEstimator implements SupportsConfidenceEstimation{
        Optional[ConfidenceIntervalsConfiguration] configuration
        Optional[torch.Tensor] distribution

        torch.Tensor {abstract} _confidence_normal(score)
        torch.Tensor {abstract} _confidence_abnormal(score)
        torch.Tensor {abstract} _confidence_unknown(score)
        torch.Tensor estimate_confidence(scores_batch: torch.Tensor)
    }

    class ConfidenceIntervalsConfiguration{
        Interval normal
        Interval abnormal
        Interval unknown
    }

    class Interval{
        float left
        float right
        bool closed_left
        bool closed_right
        torch.Tensor contains_tensor_mask(item: torch.Tensor)
    }

    BaseConfidenceEstimator *- - ConfidenceIntervalsConfiguration
    ConfidenceIntervalsConfiguration *- - Interval

}

@enduml

PlantUML version 1.2020.02(Sun Mar 01 11:22:07 CET 2020)
(GPL source distribution)
Java Runtime: OpenJDK Runtime Environment
JVM: OpenJDK 64-Bit Server VM
Java Version: 21.0.11+10-1-24.04.2-Ubuntu
Operating System: Linux
Default Encoding: UTF-8
Language: en
Country: null
--></g></svg>