<?xml version="1.0" encoding="UTF-8" standalone="no"?><svg xmlns="http://www.w3.org/2000/svg" xmlns:xlink="http://www.w3.org/1999/xlink" contentScriptType="application/ecmascript" contentStyleType="text/css" height="422px" preserveAspectRatio="none" style="width:536px;height:422px;" version="1.1" viewBox="0 0 536 422" width="536px" zoomAndPan="magnify"><defs><filter height="300%" id="fhd0lwpc1seb1" width="300%" x="-1" y="-1"><feGaussianBlur result="blurOut" stdDeviation="2.0"/><feColorMatrix in="blurOut" result="blurOut2" type="matrix" values="0 0 0 0 0 0 0 0 0 0 0 0 0 0 0 0 0 0 .4 0"/><feOffset dx="4.0" dy="4.0" in="blurOut2" result="blurOut3"/><feBlend in="SourceGraphic" in2="blurOut3" mode="normal"/></filter></defs><g><!--MD5=[abfb53c408429bb9d59ed0034bee9e9b]
cluster datamodules--><polygon fill="#FFFFFF" filter="url(#fhd0lwpc1seb1)" points="22,24,129,24,136,46.2969,276,46.2969,276,378,22,378,22,24" style="stroke: #000000; stroke-width: 1.5;"/><line style="stroke: #000000; stroke-width: 1.5;" x1="22" x2="136" y1="46.2969" y2="46.2969"/><text fill="#000000" font-family="sans-serif" font-size="14" font-weight="bold" lengthAdjust="spacingAndGlyphs" textLength="101" x="26" y="38.9951">datamodules</text><!--MD5=[806684192a35eec0da82840a1081b5d2]
cluster L--><polygon fill="#FFFFFF" filter="url(#fhd0lwpc1seb1)" points="300,247,315,247,322,269.2969,514,269.2969,514,410,300,410,300,247" style="stroke: #000000; stroke-width: 1.5;"/><line style="stroke: #000000; stroke-width: 1.5;" x1="300" x2="322" y1="269.2969" y2="269.2969"/><text fill="#000000" font-family="sans-serif" font-size="14" font-weight="bold" lengthAdjust="spacingAndGlyphs" textLength="9" x="304" y="261.9951">L</text><!--MD5=[3d157833b42ccfd7579b69e4cdff4227]
class SelfSupervisionDataModule--><rect fill="#FEFECE" filter="url(#fhd0lwpc1seb1)" height="163.2422" id="SelfSupervisionDataModule" style="stroke: #A80036; stroke-width: 1.5;" width="222" x="38" y="59"/><ellipse cx="62" cy="75" fill="#ADD1B2" rx="11" ry="11" style="stroke: #A80036; stroke-width: 1.0;"/><path d="M64.9688,80.6406 Q64.3906,80.9375 63.75,81.0781 Q63.1094,81.2344 62.4063,81.2344 Q59.9063,81.2344 58.5781,79.5938 Q57.2656,77.9375 57.2656,74.8125 Q57.2656,71.6875 58.5781,70.0313 Q59.9063,68.375 62.4063,68.375 Q63.1094,68.375 63.75,68.5313 Q64.4063,68.6875 64.9688,68.9844 L64.9688,71.7031 Q64.3438,71.125 63.75,70.8594 Q63.1563,70.5781 62.5313,70.5781 Q61.1875,70.5781 60.5,71.6563 Q59.8125,72.7188 59.8125,74.8125 Q59.8125,76.9063 60.5,77.9844 Q61.1875,79.0469 62.5313,79.0469 Q63.1563,79.0469 63.75,78.7813 Q64.3438,78.5 64.9688,77.9219 L64.9688,80.6406 Z "/><text fill="#000000" font-family="sans-serif" font-size="12" lengthAdjust="spacingAndGlyphs" textLength="170" x="78" y="79.1543">SelfSupervisionDataModule</text><line style="stroke: #A80036; stroke-width: 1.5;" x1="39" x2="259" y1="91" y2="91"/><text fill="#000000" font-family="sans-serif" font-size="11" lengthAdjust="spacingAndGlyphs" textLength="198" x="44" y="105.2104">L.LightningDataModule datamodule</text><text fill="#000000" font-family="sans-serif" font-size="11" lengthAdjust="spacingAndGlyphs" textLength="160" x="44" y="118.0151">DatasetWithConfidence train</text><text fill="#000000" font-family="sans-serif" font-size="11" lengthAdjust="spacingAndGlyphs" textLength="73" x="44" y="130.8198">int input_dim</text><text fill="#000000" font-family="sans-serif" font-size="11" lengthAdjust="spacingAndGlyphs" textLength="77" x="44" y="143.6245">int batch_size</text><line style="stroke: #A80036; stroke-width: 1.5;" x1="39" x2="259" y1="150.2188" y2="150.2188"/><text fill="#000000" font-family="sans-serif" font-size="11" lengthAdjust="spacingAndGlyphs" textLength="72" x="44" y="164.4292">setup(stage)</text><text fill="#000000" font-family="sans-serif" font-size="11" lengthAdjust="spacingAndGlyphs" textLength="170" x="44" y="177.2339">DataLoader train_dataloader()</text><text fill="#000000" font-family="sans-serif" font-size="11" lengthAdjust="spacingAndGlyphs" textLength="160" x="44" y="190.0386">DataLoader val_dataloader()</text><text fill="#000000" font-family="sans-serif" font-size="11" lengthAdjust="spacingAndGlyphs" textLength="166" x="44" y="202.8433">DataLoader test_dataloader()</text><text fill="#000000" font-family="sans-serif" font-size="11" lengthAdjust="spacingAndGlyphs" textLength="210" x="44" y="215.6479">DataLoader supervision_dataloader()</text><!--MD5=[471afdce0472c8a397c65dea2b23649d]
class DatasetWithConfidence--><rect fill="#FEFECE" filter="url(#fhd0lwpc1seb1)" height="48" id="DatasetWithConfidence" style="stroke: #A80036; stroke-width: 1.5;" width="179" x="59.5" y="314"/><ellipse cx="74.5" cy="330" fill="#ADD1B2" rx="11" ry="11" style="stroke: #A80036; stroke-width: 1.0;"/><path d="M77.4688,335.6406 Q76.8906,335.9375 76.25,336.0781 Q75.6094,336.2344 74.9063,336.2344 Q72.4063,336.2344 71.0781,334.5938 Q69.7656,332.9375 69.7656,329.8125 Q69.7656,326.6875 71.0781,325.0313 Q72.4063,323.375 74.9063,323.375 Q75.6094,323.375 76.25,323.5313 Q76.9063,323.6875 77.4688,323.9844 L77.4688,326.7031 Q76.8438,326.125 76.25,325.8594 Q75.6563,325.5781 75.0313,325.5781 Q73.6875,325.5781 73,326.6563 Q72.3125,327.7188 72.3125,329.8125 Q72.3125,331.9063 73,332.9844 Q73.6875,334.0469 75.0313,334.0469 Q75.6563,334.0469 76.25,333.7813 Q76.8438,333.5 77.4688,332.9219 L77.4688,335.6406 Z "/><text fill="#000000" font-family="sans-serif" font-size="12" lengthAdjust="spacingAndGlyphs" textLength="147" x="88.5" y="334.1543">DatasetWithConfidence</text><line style="stroke: #A80036; stroke-width: 1.5;" x1="60.5" x2="237.5" y1="346" y2="346"/><line style="stroke: #A80036; stroke-width: 1.5;" x1="60.5" x2="237.5" y1="354" y2="354"/><!--MD5=[d7cb73e18148196bcaff5d40a89ceeba]
class L.LightningDataModule--><rect fill="#FEFECE" filter="url(#fhd0lwpc1seb1)" height="112.0234" id="L.LightningDataModule" style="stroke: #A80036; stroke-width: 1.5;" width="182" x="316" y="282"/><ellipse cx="338.65" cy="298" fill="#B4A7E5" rx="11" ry="11" style="stroke: #A80036; stroke-width: 1.0;"/><path d="M334.5719,293.7656 L334.5719,291.6094 L341.9625,291.6094 L341.9625,293.7656 L339.4938,293.7656 L339.4938,301.8438 L341.9625,301.8438 L341.9625,304 L334.5719,304 L334.5719,301.8438 L337.0406,301.8438 L337.0406,293.7656 L334.5719,293.7656 Z "/><text fill="#000000" font-family="sans-serif" font-size="12" font-style="italic" lengthAdjust="spacingAndGlyphs" textLength="133" x="354.35" y="302.1543">LightningDataModule</text><line style="stroke: #A80036; stroke-width: 1.5;" x1="317" x2="497" y1="314" y2="314"/><line style="stroke: #A80036; stroke-width: 1.5;" x1="317" x2="497" y1="322" y2="322"/><text fill="#000000" font-family="sans-serif" font-size="11" lengthAdjust="spacingAndGlyphs" textLength="84" x="322" y="336.2104">prepare_data()</text><text fill="#000000" font-family="sans-serif" font-size="11" lengthAdjust="spacingAndGlyphs" textLength="110" x="322" y="349.0151">setup(String stage)</text><text fill="#000000" font-family="sans-serif" font-size="11" lengthAdjust="spacingAndGlyphs" textLength="170" x="322" y="361.8198">DataLoader train_dataloader()</text><text fill="#000000" font-family="sans-serif" font-size="11" lengthAdjust="spacingAndGlyphs" textLength="160" x="322" y="374.6245">DataLoader val_dataloader()</text><text fill="#000000" font-family="sans-serif" font-size="11" lengthAdjust="spacingAndGlyphs" textLength="166" x="322" y="387.4292">DataLoader test_dataloader()</text><!--MD5=[03f08f024e5e053e53af43401b2e3e5c]
reverse link L.LightningDataModule to SelfSupervisionDataModule--><path d="M306.48,270.05 C285.53,254.63 263.55,238.08 242.85,222.15 " fill="none" id="L.LightningDataModule&lt;-SelfSupervisionDataModule" style="stroke: #A80036; stroke-width: 1.0;"/><polygon fill="none" points="310.62,264.41,322.63,281.86,302.35,275.71,310.62,264.41" style="stroke: #A80036; stroke-width: 1.0;"/><!--MD5=[415f35eb1a31174eb99e18ece40ea757]
reverse link SelfSupervisionDataModule to L.LightningDataModule--><path d="M270.5,223.46 C296.83,243.11 323.56,263.63 346.37,281.74 " fill="none" id="SelfSupervisionDataModule&lt;-L.LightningDataModule" style="stroke: #A80036; stroke-width: 1.0;"/><polygon fill="#FFFFFF" points="260.05,215.69,262.4813,222.4789,269.6831,222.8456,267.2518,216.0568,260.05,215.69" style="stroke: #A80036; stroke-width: 1.0;"/><!--MD5=[9fd1a4bb9731949485df4967c781b912]
reverse link SelfSupervisionDataModule to DatasetWithConfidence--><path d="M149,235.41 C149,264.43 149,293.9 149,313.57 " fill="none" id="SelfSupervisionDataModule&lt;-DatasetWithConfidence" style="stroke: #A80036; stroke-width: 1.0;"/><polygon fill="#A80036" points="149,222.15,145,228.15,149,234.15,153,228.15,149,222.15" style="stroke: #A80036; stroke-width: 1.0;"/><!--MD5=[c6bd91383293a6706d1e7e8130687966]
@startuml datamodules

package datamodules{

    interface L.LightningDataModule{
        prepare_data()
        setup(String stage)
        DataLoader train_dataloader()
        DataLoader val_dataloader()
        DataLoader test_dataloader()
    }

    class SelfSupervisionDataModule{
        L.LightningDataModule datamodule
        DatasetWithConfidence train
        int input_dim
        int batch_size

        setup(stage)
        DataLoader train_dataloader()
        DataLoader val_dataloader()
        DataLoader test_dataloader()
        DataLoader supervision_dataloader()
    }
    class SelfSupervisionDataModule extends L.LightningDataModule

    SelfSupervisionDataModule *- - DatasetWithConfidence
    SelfSupervisionDataModule o- - L.LightningDataModule

}

@enduml

PlantUML version 1.2020.02(Sun Mar 01 11:22:07 CET 2020)
(GPL source distribution)
Java Runtime: OpenJDK Runtime Environment
JVM: OpenJDK 64-Bit Server VM
Java Version: 21.0.11+10-1-24.04.2-Ubuntu
Operating System: Linux
Default Encoding: UTF-8
Language: en
Country: null
--></g></svg>