<?xml version="1.0" encoding="UTF-8" standalone="no"?><svg xmlns="http://www.w3.org/2000/svg" xmlns:xlink="http://www.w3.org/1999/xlink" contentScriptType="application/ecmascript" contentStyleType="text/css" height="435px" preserveAspectRatio="none" style="width:586px;height:435px;" version="1.1" viewBox="0 0 586 435" width="586px" zoomAndPan="magnify"><defs><filter height="300%" id="f1259fvc0w4v1w" width="300%" x="-1" y="-1"><feGaussianBlur result="blurOut" stdDeviation="2.0"/><feColorMatrix in="blurOut" result="blurOut2" type="matrix" values="0 0 0 0 0 0 0 0 0 0 0 0 0 0 0 0 0 0 .4 0"/><feOffset dx="4.0" dy="4.0" in="blurOut2" result="blurOut3"/><feBlend in="SourceGraphic" in2="blurOut3" mode="normal"/></filter></defs><g><!--MD5=[0c837f6ce48e75586d8f1a6024800892]
cluster distribution_analyzers--><polygon fill="#FFFFFF" filter="url(#f1259fvc0w4v1w)" points="22,24,201,24,208,46.2969,564,46.2969,564,423,22,423,22,24" style="stroke: #000000; stroke-width: 1.5;"/><line style="stroke: #000000; stroke-width: 1.5;" x1="22" x2="208" y1="46.2969" y2="46.2969"/><text fill="#000000" font-family="sans-serif" font-size="14" font-weight="bold" lengthAdjust="spacingAndGlyphs" textLength="173" x="26" y="38.9951">distribution_analyzers</text><!--MD5=[44352b60d6ce83b165b0e8b436dda83d]
class SupportsDistributionAnalysis--><rect fill="#FEFECE" filter="url(#f1259fvc0w4v1w)" height="112.0234" id="SupportsDistributionAnalysis" style="stroke: #A80036; stroke-width: 1.5;" width="418" x="84" y="59"/><ellipse cx="200.75" cy="75" fill="#B4A7E5" rx="11" ry="11" style="stroke: #A80036; stroke-width: 1.0;"/><path d="M196.6719,70.7656 L196.6719,68.6094 L204.0625,68.6094 L204.0625,70.7656 L201.5938,70.7656 L201.5938,78.8438 L204.0625,78.8438 L204.0625,81 L196.6719,81 L196.6719,78.8438 L199.1406,78.8438 L199.1406,70.7656 L196.6719,70.7656 Z "/><text fill="#000000" font-family="sans-serif" font-size="12" font-style="italic" lengthAdjust="spacingAndGlyphs" textLength="176" x="221.25" y="79.1543">SupportsDistributionAnalysis</text><line style="stroke: #A80036; stroke-width: 1.5;" x1="85" x2="501" y1="91" y2="91"/><text fill="#000000" font-family="sans-serif" font-size="11" lengthAdjust="spacingAndGlyphs" textLength="161" x="90" y="105.2104">scores_batch: torch.Tensor,</text><text fill="#000000" font-family="sans-serif" font-size="11" lengthAdjust="spacingAndGlyphs" textLength="322" x="90" y="118.0151">current_conf: Optional[ConfidenceIntervalsConfiguration]</text><line style="stroke: #A80036; stroke-width: 1.5;" x1="85" x2="501" y1="124.6094" y2="124.6094"/><text fill="#000000" font-family="sans-serif" font-size="11" lengthAdjust="spacingAndGlyphs" textLength="308" x="90" y="138.8198">ConfidenceIntervalsConfiguration analyze_distribution(</text><text fill="#000000" font-family="sans-serif" font-size="11" lengthAdjust="spacingAndGlyphs" textLength="4" x="90" y="151.6245">)</text><text fill="#000000" font-family="sans-serif" font-size="11" lengthAdjust="spacingAndGlyphs" textLength="406" x="90" y="164.4292">matplotlib.figure.Figure plot_analysis(style: str, plot_size: tuple[int, int])</text><!--MD5=[16b35c3c53f1014f4ae14fd4eefe1b8c]
class TriangularThresholding--><rect fill="#FEFECE" filter="url(#f1259fvc0w4v1w)" height="176.0469" id="TriangularThresholding" style="stroke: #A80036; stroke-width: 1.5;" width="509" x="38.5" y="231"/><ellipse cx="216.75" cy="247" fill="#ADD1B2" rx="11" ry="11" style="stroke: #A80036; stroke-width: 1.0;"/><path d="M219.7188,252.6406 Q219.1406,252.9375 218.5,253.0781 Q217.8594,253.2344 217.1563,253.2344 Q214.6563,253.2344 213.3281,251.5938 Q212.0156,249.9375 212.0156,246.8125 Q212.0156,243.6875 213.3281,242.0313 Q214.6563,240.375 217.1563,240.375 Q217.8594,240.375 218.5,240.5313 Q219.1563,240.6875 219.7188,240.9844 L219.7188,243.7031 Q219.0938,243.125 218.5,242.8594 Q217.9063,242.5781 217.2813,242.5781 Q215.9375,242.5781 215.25,243.6563 Q214.5625,244.7188 214.5625,246.8125 Q214.5625,248.9063 215.25,249.9844 Q215.9375,251.0469 217.2813,251.0469 Q217.9063,251.0469 218.5,250.7813 Q219.0938,250.5 219.7188,249.9219 L219.7188,252.6406 Z "/><text fill="#000000" font-family="sans-serif" font-size="12" lengthAdjust="spacingAndGlyphs" textLength="144" x="237.25" y="251.1543">TriangularThresholding</text><line style="stroke: #A80036; stroke-width: 1.5;" x1="39.5" x2="546.5" y1="263" y2="263"/><text fill="#000000" font-family="sans-serif" font-size="11" lengthAdjust="spacingAndGlyphs" textLength="111" x="44.5" y="277.2104">data: NDArray[Any],</text><text fill="#000000" font-family="sans-serif" font-size="11" lengthAdjust="spacingAndGlyphs" textLength="77" x="44.5" y="290.0151">min_bins: int,</text><text fill="#000000" font-family="sans-serif" font-size="11" lengthAdjust="spacingAndGlyphs" textLength="80" x="44.5" y="302.8198">max_bins: int,</text><text fill="#000000" font-family="sans-serif" font-size="11" lengthAdjust="spacingAndGlyphs" textLength="92" x="44.5" y="315.6245">step_search: int</text><line style="stroke: #A80036; stroke-width: 1.5;" x1="39.5" x2="546.5" y1="322.2188" y2="322.2188"/><text fill="#000000" font-family="sans-serif" font-size="11" lengthAdjust="spacingAndGlyphs" textLength="497" x="44.5" y="336.4292">tuple[NDArray[Any], NDArray[Any]] get_histogram(self, distribution_array: NDArray[Any])</text><text fill="#000000" font-family="sans-serif" font-size="11" lengthAdjust="spacingAndGlyphs" textLength="406" x="44.5" y="349.2339">tuple[int, float] unimodal_left(counts, bin_edges, reverse: bool = False)</text><text fill="#000000" font-family="sans-serif" font-size="11" lengthAdjust="spacingAndGlyphs" textLength="283" x="44.5" y="362.0386">tuple[int, float] unimodal_right(counts, bin_edges)</text><text fill="#000000" font-family="sans-serif" font-size="11" lengthAdjust="spacingAndGlyphs" textLength="314" x="44.5" y="374.8433">tuple[NDArray[Any],NDArray[Any]] knuth_bin_histogram(</text><text fill="#000000" font-family="sans-serif" font-size="11" lengthAdjust="spacingAndGlyphs" textLength="4" x="44.5" y="387.6479">)</text><text fill="#000000" font-family="sans-serif" font-size="11" lengthAdjust="spacingAndGlyphs" textLength="349" x="44.5" y="400.4526">float knuth_criterion(data_size: int, num_bins: int, counts: int)</text><!--MD5=[f4f900b7372df164b8fe169ce6f1abbb]
reverse link SupportsDistributionAnalysis to TriangularThresholding--><path d="M293,191.48 C293,204.36 293,217.83 293,230.98 " fill="none" id="SupportsDistributionAnalysis&lt;-TriangularThresholding" style="stroke: #A80036; stroke-width: 1.0; stroke-dasharray: 7.0,7.0;"/><polygon fill="none" points="286,191.2,293,171.2,300,191.2,286,191.2" style="stroke: #A80036; stroke-width: 1.0;"/><!--MD5=[bca4fea8b36f223b3f47459d1ff8892e]
@startuml distribution_analyzers

package distribution_analyzers{

    interface SupportsDistributionAnalysis{
        ConfidenceIntervalsConfiguration analyze_distribution(
        scores_batch: torch.Tensor,
        current_conf: Optional[ConfidenceIntervalsConfiguration]
        )
        matplotlib.figure.Figure plot_analysis(style: str, plot_size: tuple[int, int])
    }

    class TriangularThresholding{
        tuple[NDArray[Any], NDArray[Any]] get_histogram(self, distribution_array: NDArray[Any])
        tuple[int, float] unimodal_left(counts, bin_edges, reverse: bool = False)
        tuple[int, float] unimodal_right(counts, bin_edges)
        tuple[NDArray[Any],NDArray[Any]] knuth_bin_histogram(
        data: NDArray[Any],
        min_bins: int,
        max_bins: int,
        step_search: int
        )
        float knuth_criterion(data_size: int, num_bins: int, counts: int)
    }
    class TriangularThresholding implements SupportsDistributionAnalysis
}

@enduml

PlantUML version 1.2020.02(Sun Mar 01 11:22:07 CET 2020)
(GPL source distribution)
Java Runtime: OpenJDK Runtime Environment
JVM: OpenJDK 64-Bit Server VM
Java Version: 21.0.11+10-1-24.04.2-Ubuntu
Operating System: Linux
Default Encoding: UTF-8
Language: en
Country: null
--></g></svg>