<?xml version="1.0" encoding="UTF-8" standalone="no"?><svg xmlns="http://www.w3.org/2000/svg" xmlns:xlink="http://www.w3.org/1999/xlink" contentScriptType="application/ecmascript" contentStyleType="text/css" height="837px" preserveAspectRatio="none" style="width:874px;height:837px;" version="1.1" viewBox="0 0 874 837" width="874px" zoomAndPan="magnify"><defs><filter height="300%" id="fqfpxic8cf8wp" width="300%" x="-1" y="-1"><feGaussianBlur result="blurOut" stdDeviation="2.0"/><feColorMatrix in="blurOut" result="blurOut2" type="matrix" values="0 0 0 0 0 0 0 0 0 0 0 0 0 0 0 0 0 0 .4 0"/><feOffset dx="4.0" dy="4.0" in="blurOut2" result="blurOut3"/><feBlend in="SourceGraphic" in2="blurOut3" mode="normal"/></filter></defs><g><!--MD5=[7552260fd2021a323855cf929da74f79]
cluster modules--><polygon fill="#FFFFFF" filter="url(#fqfpxic8cf8wp)" points="22,24,95,24,102,46.2969,554,46.2969,554,825,22,825,22,24" style="stroke: #000000; stroke-width: 1.5;"/><line style="stroke: #000000; stroke-width: 1.5;" x1="22" x2="102" y1="46.2969" y2="46.2969"/><text fill="#000000" font-family="sans-serif" font-size="14" font-weight="bold" lengthAdjust="spacingAndGlyphs" textLength="67" x="26" y="38.9951">modules</text><!--MD5=[806684192a35eec0da82840a1081b5d2]
cluster L--><polygon fill="#FFFFFF" filter="url(#fqfpxic8cf8wp)" points="578,24,593,24,600,46.2969,852,46.2969,852,506,578,506,578,24" style="stroke: #000000; stroke-width: 1.5;"/><line style="stroke: #000000; stroke-width: 1.5;" x1="578" x2="600" y1="46.2969" y2="46.2969"/><text fill="#000000" font-family="sans-serif" font-size="14" font-weight="bold" lengthAdjust="spacingAndGlyphs" textLength="9" x="582" y="38.9951">L</text><!--MD5=[e19d02c1f68dcd2f8cde9afa3da2b308]
class SupportsSelfSupervision--><rect fill="#FEFECE" filter="url(#fqfpxic8cf8wp)" height="112.0234" id="SupportsSelfSupervision" style="stroke: #A80036; stroke-width: 1.5;" width="313" x="131.5" y="59"/><ellipse cx="208.75" cy="75" fill="#B4A7E5" rx="11" ry="11" style="stroke: #A80036; stroke-width: 1.0;"/><path d="M204.6719,70.7656 L204.6719,68.6094 L212.0625,68.6094 L212.0625,70.7656 L209.5938,70.7656 L209.5938,78.8438 L212.0625,78.8438 L212.0625,81 L204.6719,81 L204.6719,78.8438 L207.1406,78.8438 L207.1406,70.7656 L204.6719,70.7656 Z "/><text fill="#000000" font-family="sans-serif" font-size="12" font-style="italic" lengthAdjust="spacingAndGlyphs" textLength="150" x="229.25" y="79.1543">SupportsSelfSupervision</text><line style="stroke: #A80036; stroke-width: 1.5;" x1="132.5" x2="443.5" y1="91" y2="91"/><text fill="#000000" font-family="sans-serif" font-size="11" lengthAdjust="spacingAndGlyphs" textLength="130" x="137.5" y="105.2104">torch.nn.Module model</text><text fill="#000000" font-family="sans-serif" font-size="11" lengthAdjust="spacingAndGlyphs" textLength="109" x="137.5" y="118.0151">int every_n_epochs</text><text fill="#000000" font-family="sans-serif" font-size="11" lengthAdjust="spacingAndGlyphs" textLength="301" x="137.5" y="130.8198">SupportsConfidenceEstimation confidence_estimator</text><text fill="#000000" font-family="sans-serif" font-size="11" lengthAdjust="spacingAndGlyphs" textLength="247" x="137.5" y="143.6245">SupportsDistributionAnalysis distr_analyzer</text><line style="stroke: #A80036; stroke-width: 1.5;" x1="132.5" x2="443.5" y1="150.2188" y2="150.2188"/><text fill="#000000" font-family="sans-serif" font-size="11" lengthAdjust="spacingAndGlyphs" textLength="225" x="137.5" y="164.4292">torch.Tensor score(torch.Tensor batch)</text><!--MD5=[30e12f50cb4f2269db0fb55d480d6a85]
class SelfSupervisionCallback--><rect fill="#FEFECE" filter="url(#fqfpxic8cf8wp)" height="86.4141" id="SelfSupervisionCallback" style="stroke: #A80036; stroke-width: 1.5;" width="243" x="230.5" y="723"/><ellipse cx="274.3" cy="739" fill="#ADD1B2" rx="11" ry="11" style="stroke: #A80036; stroke-width: 1.0;"/><path d="M277.2688,744.6406 Q276.6906,744.9375 276.05,745.0781 Q275.4094,745.2344 274.7063,745.2344 Q272.2063,745.2344 270.8781,743.5938 Q269.5656,741.9375 269.5656,738.8125 Q269.5656,735.6875 270.8781,734.0313 Q272.2063,732.375 274.7063,732.375 Q275.4094,732.375 276.05,732.5313 Q276.7063,732.6875 277.2688,732.9844 L277.2688,735.7031 Q276.6438,735.125 276.05,734.8594 Q275.4563,734.5781 274.8313,734.5781 Q273.4875,734.5781 272.8,735.6563 Q272.1125,736.7188 272.1125,738.8125 Q272.1125,740.9063 272.8,741.9844 Q273.4875,743.0469 274.8313,743.0469 Q275.4563,743.0469 276.05,742.7813 Q276.6438,742.5 277.2688,741.9219 L277.2688,744.6406 Z "/><text fill="#000000" font-family="sans-serif" font-size="12" lengthAdjust="spacingAndGlyphs" textLength="147" x="294.7" y="743.1543">SelfSupervisionCallback</text><line style="stroke: #A80036; stroke-width: 1.5;" x1="231.5" x2="472.5" y1="755" y2="755"/><line style="stroke: #A80036; stroke-width: 1.5;" x1="231.5" x2="472.5" y1="763" y2="763"/><text fill="#000000" font-family="sans-serif" font-size="11" lengthAdjust="spacingAndGlyphs" textLength="176" x="236.5" y="777.2104">on_fit_start(trainer, pl_module)</text><text fill="#000000" font-family="sans-serif" font-size="11" lengthAdjust="spacingAndGlyphs" textLength="231" x="236.5" y="790.0151">on_train_epoch_start(trainer, pl_module)</text><text fill="#000000" font-family="sans-serif" font-size="11" lengthAdjust="spacingAndGlyphs" textLength="225" x="236.5" y="802.8198">on_train_epoch_end(trainer, pl_module)</text><!--MD5=[34a6b8196c94c13bc8887e9a551ee396]
class SelfSupervisionModule--><rect fill="#FEFECE" filter="url(#fqfpxic8cf8wp)" height="432.1406" id="SelfSupervisionModule" style="stroke: #A80036; stroke-width: 1.5;" width="499" x="38.5" y="231"/><ellipse cx="213.75" cy="247" fill="#ADD1B2" rx="11" ry="11" style="stroke: #A80036; stroke-width: 1.0;"/><path d="M216.7188,252.6406 Q216.1406,252.9375 215.5,253.0781 Q214.8594,253.2344 214.1563,253.2344 Q211.6563,253.2344 210.3281,251.5938 Q209.0156,249.9375 209.0156,246.8125 Q209.0156,243.6875 210.3281,242.0313 Q211.6563,240.375 214.1563,240.375 Q214.8594,240.375 215.5,240.5313 Q216.1563,240.6875 216.7188,240.9844 L216.7188,243.7031 Q216.0938,243.125 215.5,242.8594 Q214.9063,242.5781 214.2813,242.5781 Q212.9375,242.5781 212.25,243.6563 Q211.5625,244.7188 211.5625,246.8125 Q211.5625,248.9063 212.25,249.9844 Q212.9375,251.0469 214.2813,251.0469 Q214.9063,251.0469 215.5,250.7813 Q216.0938,250.5 216.7188,249.9219 L216.7188,252.6406 Z "/><text fill="#000000" font-family="sans-serif" font-size="12" lengthAdjust="spacingAndGlyphs" textLength="140" x="234.25" y="251.1543">SelfSupervisionModule</text><line style="stroke: #A80036; stroke-width: 1.5;" x1="39.5" x2="536.5" y1="263" y2="263"/><text fill="#000000" font-family="sans-serif" font-size="11" lengthAdjust="spacingAndGlyphs" textLength="130" x="44.5" y="277.2104">torch.nn.Module model</text><text fill="#000000" font-family="sans-serif" font-size="11" lengthAdjust="spacingAndGlyphs" textLength="109" x="44.5" y="290.0151">int every_n_epochs</text><text fill="#000000" font-family="sans-serif" font-size="11" lengthAdjust="spacingAndGlyphs" textLength="301" x="44.5" y="302.8198">SupportsConfidenceEstimation confidence_estimator</text><text fill="#000000" font-family="sans-serif" font-size="11" lengthAdjust="spacingAndGlyphs" textLength="247" x="44.5" y="315.6245">SupportsDistributionAnalysis distr_analyzer</text><text fill="#000000" font-family="sans-serif" font-size="11" lengthAdjust="spacingAndGlyphs" textLength="127" x="44.5" y="328.4292">str threshold_strategy</text><text fill="#000000" font-family="sans-serif" font-size="11" lengthAdjust="spacingAndGlyphs" textLength="131" x="44.5" y="341.2339">float manual_threshold</text><text fill="#000000" font-family="sans-serif" font-size="11" lengthAdjust="spacingAndGlyphs" textLength="190" x="44.5" y="354.0386">Dict[str, List[Tensor]] val_outputs</text><text fill="#000000" font-family="sans-serif" font-size="11" lengthAdjust="spacingAndGlyphs" textLength="196" x="44.5" y="366.8433">Dict[str, List[Tensor]] test_outputs</text><text fill="#000000" font-family="sans-serif" font-size="11" lengthAdjust="spacingAndGlyphs" textLength="118" x="44.5" y="379.6479">List[float] thresholds</text><text fill="#000000" font-family="sans-serif" font-size="11" lengthAdjust="spacingAndGlyphs" textLength="0" x="48.5" y="392.4526"/><text fill="#000000" font-family="sans-serif" font-size="11" lengthAdjust="spacingAndGlyphs" textLength="197" x="44.5" y="405.2573">Callable[..., torch.Tensor] criterion</text><line style="stroke: #A80036; stroke-width: 1.5;" x1="39.5" x2="536.5" y1="411.8516" y2="411.8516"/><text fill="#000000" font-family="sans-serif" font-size="11" font-style="italic" lengthAdjust="spacingAndGlyphs" textLength="408" x="44.5" y="426.062">torch.Tensor _positive_loss(torch.Tensor data, torch.Tensor confidence)</text><text fill="#000000" font-family="sans-serif" font-size="11" font-style="italic" lengthAdjust="spacingAndGlyphs" textLength="413" x="44.5" y="438.8667">torch.Tensor _negative_loss(torch.Tensor data, torch.Tensor confidence)</text><text fill="#000000" font-family="sans-serif" font-size="11" font-style="italic" lengthAdjust="spacingAndGlyphs" textLength="417" x="44.5" y="451.6714">torch.Tensor _uncertain_loss(torch.Tensor data, torch.Tensor confidence)</text><text fill="#000000" font-family="sans-serif" font-size="11" font-style="italic" lengthAdjust="spacingAndGlyphs" textLength="284" x="44.5" y="464.4761">torch.Tensor _prediction_score(torch.Tensor data)</text><text fill="#000000" font-family="sans-serif" font-size="11" font-style="italic" lengthAdjust="spacingAndGlyphs" textLength="487" x="44.5" y="477.2808">torch.Tensor compute_loss(torch.Tensor data, torch.Tensor confidence, int batch_idx)</text><text fill="#000000" font-family="sans-serif" font-size="11" font-style="italic" lengthAdjust="spacingAndGlyphs" textLength="168" x="44.5" y="490.0854">List[float] update_thresholds()</text><text fill="#000000" font-family="sans-serif" font-size="11" font-style="italic" lengthAdjust="spacingAndGlyphs" textLength="222" x="44.5" y="502.8901">torch.Tensor score(torch.Tensor batch)</text><text fill="#000000" font-family="sans-serif" font-size="11" lengthAdjust="spacingAndGlyphs" textLength="0" x="48.5" y="515.6948"/><text fill="#000000" font-family="sans-serif" font-size="11" lengthAdjust="spacingAndGlyphs" textLength="126" x="44.5" y="528.4995">configure_optimizers()</text><text fill="#000000" font-family="sans-serif" font-size="11" lengthAdjust="spacingAndGlyphs" textLength="233" x="44.5" y="541.3042">torch.Tensor forward(i, *args, **kwargs)</text><text fill="#000000" font-family="sans-serif" font-size="11" lengthAdjust="spacingAndGlyphs" textLength="275" x="44.5" y="554.1089">training_step(batch, batch_idx, *args, **kwargs)</text><text fill="#000000" font-family="sans-serif" font-size="11" lengthAdjust="spacingAndGlyphs" textLength="119" x="44.5" y="566.9136">configure_callbacks()</text><text fill="#000000" font-family="sans-serif" font-size="11" lengthAdjust="spacingAndGlyphs" textLength="421" x="44.5" y="579.7183">torch.Tensor update_confidence(datamodule: SelfSupervisionDataModule)</text><text fill="#000000" font-family="sans-serif" font-size="11" lengthAdjust="spacingAndGlyphs" textLength="292" x="44.5" y="592.5229">validation_step(batch, _batch_idx, *args, **kwargs)</text><text fill="#000000" font-family="sans-serif" font-size="11" lengthAdjust="spacingAndGlyphs" textLength="149" x="44.5" y="605.3276">on_validation_epoch_end()</text><text fill="#000000" font-family="sans-serif" font-size="11" lengthAdjust="spacingAndGlyphs" textLength="260" x="44.5" y="618.1323">test_step(batch, _batch_idx, *args, **kwargs)</text><text fill="#000000" font-family="sans-serif" font-size="11" lengthAdjust="spacingAndGlyphs" textLength="117" x="44.5" y="630.937">on_test_epoch_end()</text><text fill="#000000" font-family="sans-serif" font-size="11" lengthAdjust="spacingAndGlyphs" textLength="371" x="44.5" y="643.7417">dict compute_test_metrics(scores, labels, threshold, eps=1e-10)</text><text fill="#000000" font-family="sans-serif" font-size="11" lengthAdjust="spacingAndGlyphs" textLength="255" x="44.5" y="656.5464">plot_test_metrics(scores, labels, mlf_logger)</text><!--MD5=[1186f78d2e93e4f8ca67ac78182c632a]
class L.LightningModule--><rect fill="#FEFECE" filter="url(#fqfpxic8cf8wp)" height="112.0234" id="L.LightningModule" style="stroke: #A80036; stroke-width: 1.5;" width="219" x="599.5" y="59"/><ellipse cx="653.25" cy="75" fill="#A9DCDF" rx="11" ry="11" style="stroke: #A80036; stroke-width: 1.0;"/><path d="M653.3594,70.3438 L652.2031,75.4219 L654.5313,75.4219 L653.3594,70.3438 Z M651.875,68.1094 L654.8594,68.1094 L658.2188,80.5 L655.7656,80.5 L655,77.4375 L651.7188,77.4375 L650.9688,80.5 L648.5313,80.5 L651.875,68.1094 Z "/><text fill="#000000" font-family="sans-serif" font-size="12" font-style="italic" lengthAdjust="spacingAndGlyphs" textLength="103" x="673.75" y="79.1543">LightningModule</text><line style="stroke: #A80036; stroke-width: 1.5;" x1="600.5" x2="817.5" y1="91" y2="91"/><line style="stroke: #A80036; stroke-width: 1.5;" x1="600.5" x2="817.5" y1="99" y2="99"/><text fill="#000000" font-family="sans-serif" font-size="11" font-style="italic" lengthAdjust="spacingAndGlyphs" textLength="126" x="605.5" y="113.2104">configure_optimizers()</text><text fill="#000000" font-family="sans-serif" font-size="11" font-style="italic" lengthAdjust="spacingAndGlyphs" textLength="207" x="605.5" y="126.0151">torch.Tensor forward(torch.Tensor i)</text><text fill="#000000" font-family="sans-serif" font-size="11" font-style="italic" lengthAdjust="spacingAndGlyphs" textLength="174" x="605.5" y="138.8198">training_step(batch, batch_idx)</text><text fill="#000000" font-family="sans-serif" font-size="11" font-style="italic" lengthAdjust="spacingAndGlyphs" textLength="152" x="605.5" y="151.6245">test_step(batch, batch_idx)</text><text fill="#000000" font-family="sans-serif" font-size="11" font-style="italic" lengthAdjust="spacingAndGlyphs" textLength="118" x="605.5" y="164.4292">configure_callbacks()</text><!--MD5=[fdd572cc916f0112dedc857567be2d22]
class L.Callback--><rect fill="#FEFECE" filter="url(#fqfpxic8cf8wp)" height="86.4141" id="L.Callback" style="stroke: #A80036; stroke-width: 1.5;" width="242" x="594" y="404"/><ellipse cx="684.75" cy="420" fill="#A9DCDF" rx="11" ry="11" style="stroke: #A80036; stroke-width: 1.0;"/><path d="M684.8594,415.3438 L683.7031,420.4219 L686.0313,420.4219 L684.8594,415.3438 Z M683.375,413.1094 L686.3594,413.1094 L689.7188,425.5 L687.2656,425.5 L686.5,422.4375 L683.2188,422.4375 L682.4688,425.5 L680.0313,425.5 L683.375,413.1094 Z "/><text fill="#000000" font-family="sans-serif" font-size="12" font-style="italic" lengthAdjust="spacingAndGlyphs" textLength="52" x="705.25" y="424.1543">Callback</text><line style="stroke: #A80036; stroke-width: 1.5;" x1="595" x2="835" y1="436" y2="436"/><line style="stroke: #A80036; stroke-width: 1.5;" x1="595" x2="835" y1="444" y2="444"/><text fill="#000000" font-family="sans-serif" font-size="11" font-style="italic" lengthAdjust="spacingAndGlyphs" textLength="225" x="600" y="458.2104">on_train_epoch_end(trainer, pl_module)</text><text fill="#000000" font-family="sans-serif" font-size="11" font-style="italic" lengthAdjust="spacingAndGlyphs" textLength="230" x="600" y="471.0151">on_train_epoch_start(trainer, pl_module)</text><text fill="#000000" font-family="sans-serif" font-size="11" font-style="italic" lengthAdjust="spacingAndGlyphs" textLength="175" x="600" y="483.8198">on_fit_start(trainer, pl_module)</text><!--MD5=[da6e2fab4adc571fa5b6cf1c677ba0d4]
reverse link L.Callback to SelfSupervisionCallback--><path d="M681.04,507.49 C652.01,554.33 606.64,618.86 554,663 C525.55,686.86 490.58,707 457.78,722.92 " fill="none" id="L.Callback&lt;-SelfSupervisionCallback" style="stroke: #A80036; stroke-width: 1.0;"/><polygon fill="none" points="675.19,503.64,691.54,490.17,687.16,510.9,675.19,503.64" style="stroke: #A80036; stroke-width: 1.0;"/><!--MD5=[5ad3535af54e41483c2c8c09361b6237]
reverse link L.LightningModule to SelfSupervisionModule--><path d="M622.78,183.58 C597.32,203.54 568.08,226.46 537.7,250.27 " fill="none" id="L.LightningModule&lt;-SelfSupervisionModule" style="stroke: #A80036; stroke-width: 1.0;"/><polygon fill="none" points="618.48,178.06,638.53,171.23,627.11,189.08,618.48,178.06" style="stroke: #A80036; stroke-width: 1.0;"/><!--MD5=[4781f7bd0955dd8015433ea041d3cb4b]
reverse link SupportsSelfSupervision to SelfSupervisionModule--><path d="M288,191.56 C288,203.84 288,217.06 288,230.79 " fill="none" id="SupportsSelfSupervision&lt;-SelfSupervisionModule" style="stroke: #A80036; stroke-width: 1.0; stroke-dasharray: 7.0,7.0;"/><polygon fill="none" points="281,191.23,288,171.23,295,191.23,281,191.23" style="stroke: #A80036; stroke-width: 1.0;"/><!--MD5=[f49188659752e9330fb2aa39b1f15b26]
reverse link L.LightningModule to L.Callback--><path d="M710.24,184.4 C711.44,250.42 713.22,348.3 714.23,403.71 " fill="none" id="L.LightningModule&lt;-L.Callback" style="stroke: #A80036; stroke-width: 1.0;"/><polygon fill="#A80036" points="710,171.23,706.1128,177.3037,710.2241,183.2279,714.1114,177.1542,710,171.23" style="stroke: #A80036; stroke-width: 1.0;"/><!--MD5=[08f4c805ad6368b0aff15edd3fce2679]
reverse link SelfSupervisionModule to SelfSupervisionCallback--><path d="M334.07,676.2 C337.56,693.48 340.77,709.38 343.48,722.8 " fill="none" id="SelfSupervisionModule&lt;-SelfSupervisionCallback" style="stroke: #A80036; stroke-width: 1.0;"/><polygon fill="#A80036" points="331.49,663.39,328.7559,670.0627,333.8637,675.1529,336.5978,668.4802,331.49,663.39" style="stroke: #A80036; stroke-width: 1.0;"/><!--MD5=[f3fcb0bdbaff767515364129f2029a3e]
@startuml modules

package modules{

    interface SupportsSelfSupervision{
        torch.nn.Module model
        int every_n_epochs
        SupportsConfidenceEstimation confidence_estimator
        SupportsDistributionAnalysis distr_analyzer
        torch.Tensor score(torch.Tensor batch)
    }

    abstract class L.LightningModule{
        {abstract} configure_optimizers()
        torch.Tensor {abstract} forward(torch.Tensor i)
        {abstract} training_step(batch, batch_idx)
        {abstract} test_step(batch, batch_idx)
        {abstract} configure_callbacks()
    }

    abstract class L.Callback{
        {abstract} on_train_epoch_end(trainer, pl_module)
        {abstract} on_train_epoch_start(trainer, pl_module)
        {abstract} on_fit_start(trainer, pl_module)
    }

    class SelfSupervisionCallback{
        on_fit_start(trainer, pl_module)
        on_train_epoch_start(trainer, pl_module)
        on_train_epoch_end(trainer, pl_module)
    }
    class SelfSupervisionCallback extends L.Callback

    abstract class SelfSupervisionModule{
        torch.nn.Module model
        int every_n_epochs
        SupportsConfidenceEstimation confidence_estimator
        SupportsDistributionAnalysis distr_analyzer
        str threshold_strategy
        float manual_threshold
        Dict[str, List[Tensor]] val_outputs
        Dict[str, List[Tensor]] test_outputs
        List[float] thresholds

        Callable[..., torch.Tensor] criterion
        torch.Tensor {abstract} _positive_loss(torch.Tensor data, torch.Tensor confidence)
        torch.Tensor {abstract} _negative_loss(torch.Tensor data, torch.Tensor confidence)
        torch.Tensor {abstract} _uncertain_loss(torch.Tensor data, torch.Tensor confidence)
        torch.Tensor {abstract} _prediction_score(torch.Tensor data)
        torch.Tensor {abstract} compute_loss(torch.Tensor data, torch.Tensor confidence, int batch_idx)
        List[float] {abstract} update_thresholds()
        torch.Tensor {abstract} score(torch.Tensor batch)

        configure_optimizers()
        torch.Tensor forward(i, *args, **kwargs)
        training_step(batch, batch_idx, *args, **kwargs)
        configure_callbacks()
        torch.Tensor update_confidence(datamodule: SelfSupervisionDataModule)
        validation_step(batch, _batch_idx, *args, **kwargs)
        on_validation_epoch_end()
        test_step(batch, _batch_idx, *args, **kwargs)
        on_test_epoch_end()
        dict compute_test_metrics(scores, labels, threshold, eps=1e-10)
        plot_test_metrics(scores, labels, mlf_logger)
    }
    class SelfSupervisionModule extends L.LightningModule
    class SelfSupervisionModule implements SupportsSelfSupervision

    L.LightningModule *- - L.Callback
    SelfSupervisionModule *- - SelfSupervisionCallback
}

@enduml

PlantUML version 1.2020.02(Sun Mar 01 11:22:07 CET 2020)
(GPL source distribution)
Java Runtime: OpenJDK Runtime Environment
JVM: OpenJDK 64-Bit Server VM
Java Version: 21.0.11+10-1-24.04.2-Ubuntu
Operating System: Linux
Default Encoding: UTF-8
Language: en
Country: null
--></g></svg>